<?xml version="1.0" encoding="UTF-8"?>
<svg id="Layer_2" data-name="Layer 2" xmlns="http://www.w3.org/2000/svg" viewBox="0 0 41.32 41.49">
  <defs>
    <style>
      .cls-1 {
        fill: #fff;
      }
    </style>
  </defs>
  <g id="Buttons">
    <path class="cls-1" d="M37.58,23.07c.1-.75.17-1.5.17-2.28s-.08-1.6-.18-2.37l3.76-1.22-1.86-5.74-3.76,1.22c-.74-1.37-1.67-2.62-2.75-3.73l2.34-3.22-4.88-3.54-2.35,3.24c-1.37-.66-2.84-1.14-4.39-1.41V0h-6.03v4.02c-1.54.28-3,.77-4.37,1.43l-2.37-3.26-4.88,3.54,2.37,3.26c-1.06,1.11-1.99,2.35-2.72,3.71l-3.81-1.24L0,17.2l3.82,1.24c-.11.77-.18,1.55-.18,2.35s.07,1.52.17,2.26l-3.8,1.24,1.86,5.74,3.77-1.23c.73,1.38,1.65,2.63,2.72,3.75l-2.33,3.2,4.88,3.54,2.32-3.19c1.38.68,2.86,1.17,4.42,1.45v3.92h6.03v-3.91c1.57-.28,3.05-.77,4.44-1.44l2.3,3.17,4.88-3.54-2.3-3.16c1.08-1.12,2.01-2.39,2.75-3.78l3.71,1.21,1.86-5.74-3.74-1.22ZM20.66,31.73c-6.07,0-10.99-4.92-10.99-10.99s4.92-10.99,10.99-10.99,10.99,4.92,10.99,10.99-4.92,10.99-10.99,10.99Z"/>
  </g>
</svg>