<?xml version="1.0" encoding="UTF-8"?>
<svg id="Layer_2" data-name="Layer 2" xmlns="http://www.w3.org/2000/svg" viewBox="0 0 37.66 35.42">
  <defs>
    <style>
      .cls-1 {
        fill: #fff;
      }
    </style>
  </defs>
  <g id="Buttons">
    <g>
      <path class="cls-1" d="M37.66,4.05c0-2.23-8.47-4.05-18.93-4.05S0,1.84,0,4.08c0,.15.04.29.12.44H.02c1.5,1.97,11.37,2.2,18.74,2.2,4.2,0,16.74,0,18.8-2.19h0s-.04,0-.04,0c.09-.16.13-.31.13-.47Z"/>
      <path class="cls-1" d="M18.77,34.3l.71,1.12.47-.81c-.23-.06-.48-.13-.75-.2-.15-.04-.29-.08-.43-.12Z"/>
      <path class="cls-1" d="M15.54,29.17l2.83,4.49c.28.08.63.17.98.26.31.08.62.16.87.23l2.24-3.82-.57-.09c-2.09-.34-4.42-.71-6.34-1.08Z"/>
      <path class="cls-1" d="M11.46,22.69l3.71,5.89c1.98.4,4.54.81,6.8,1.17l.76.12,2.99-5.1c-2.35-.43-4.79-.74-7.15-1.04-2.51-.31-4.89-.62-7.11-1.05Z"/>
      <path class="cls-1" d="M.7,5.61l2.78,4.42c18.71,1.59,25.72,2.43,28.83,3.47l4.67-7.98c-2.44,1.17-8.25,1.71-18.22,1.71S3.1,6.73.7,5.61Z"/>
      <path class="cls-1" d="M7.91,17.06l3.18,5.05c2.33.48,4.86.79,7.53,1.13,2.43.3,4.94.62,7.36,1.07l2.49-4.26c-2.45-.44-6.31-.96-10.07-1.45-3.96-.52-8.02-1.07-10.5-1.53Z"/>
      <path class="cls-1" d="M7.55,16.48c2.39.48,6.72,1.06,10.93,1.62,3.85.51,7.82,1.04,10.27,1.49l3.31-5.65c-3.1-1-10.06-1.83-28.24-3.38l3.73,5.93Z"/>
    </g>
  </g>
</svg>